<mxfile host="app.diagrams.net" agent="Mozilla/5.0 (Windows NT 10.0; Win64; x64) AppleWebKit/537.36 (KHTML, like Gecko) Chrome/131.0.0.0 Safari/537.36" version="26.0.2">
  <diagram name="Page-1" id="Q81SIaC_uHWUsFL5Hwr5">
    <mxGraphModel dx="584" dy="-354" grid="1" gridSize="10" guides="1" tooltips="1" connect="1" arrows="1" fold="1" page="1" pageScale="1" pageWidth="850" pageHeight="1100" math="0" shadow="0">
      <root>
        <mxCell id="0" />
        <mxCell id="1" parent="0" />
        <mxCell id="ugyeiSpLZiavooj3qC4W-118" value="&lt;div&gt;9) Cursada 2022 - 2da fecha - 29/11/2022&lt;/div&gt;&lt;div&gt;&amp;nbsp;&amp;nbsp;&lt;/div&gt;&lt;div&gt;&lt;span style=&quot;font-weight: normal;&quot;&gt;TipoObra = ( idTipo, descripcionTipo ) &lt;br&gt;Obra = ( nroObra, idTipo(fk), fechaCrea, nombre, calle, nro, codigoPostal(fk) )&amp;nbsp; // Obras arquitectónica &lt;br&gt;Artista = ( idArtista, DNI, pasaporte, nombre, apellido, telefono, fnac, codigoPostalVive(fk) )&lt;/span&gt;&lt;/div&gt;&lt;div&gt;&lt;div&gt;&lt;span style=&quot;font-weight: normal;&quot;&gt;Artista_Obra = ( nroObra(fk), idArtista(fk), fechal, fechaF, descripcionl )&amp;nbsp; // Intervenciones de artistas en las obras,&amp;nbsp;&lt;/span&gt;&lt;/div&gt;&lt;div&gt;&lt;span style=&quot;font-weight: normal;&quot;&gt;&amp;nbsp; &amp;nbsp; &amp;nbsp; &amp;nbsp; &amp;nbsp; &amp;nbsp; &amp;nbsp; &amp;nbsp; &amp;nbsp; &amp;nbsp; &amp;nbsp; &amp;nbsp; &amp;nbsp; &amp;nbsp; &amp;nbsp; &amp;nbsp; &amp;nbsp; &amp;nbsp; &amp;nbsp; &amp;nbsp; &amp;nbsp; &amp;nbsp; &amp;nbsp; &amp;nbsp; &amp;nbsp; &amp;nbsp; &amp;nbsp; &amp;nbsp; &amp;nbsp; &amp;nbsp; &amp;nbsp; &amp;nbsp; &amp;nbsp; &amp;nbsp; &amp;nbsp; &amp;nbsp; &amp;nbsp; &amp;nbsp; &amp;nbsp; &amp;nbsp; &amp;nbsp; &amp;nbsp; &amp;nbsp; &amp;nbsp; &amp;nbsp; &amp;nbsp; &amp;nbsp; &amp;nbsp; &amp;nbsp; &amp;nbsp; &amp;nbsp; &amp;nbsp; &amp;nbsp; &amp;nbsp; &amp;nbsp; &amp;nbsp; &amp;nbsp; &amp;nbsp; &amp;nbsp; &amp;nbsp; &amp;nbsp; &amp;nbsp;un mismo artista puede intervenir varias veces la misma obra&lt;br&gt;&lt;/span&gt;&lt;/div&gt;&lt;/div&gt;&lt;div&gt;&lt;span style=&quot;font-weight: normal; background-color: transparent; color: light-dark(rgb(51, 51, 51), rgb(193, 193, 193));&quot;&gt;Localidad = ( codigoPostal, nombreL, descripcion, #habitantes )&amp;nbsp;&lt;/span&gt;&lt;span style=&quot;font-weight: normal;&quot;&gt;&lt;br&gt;&lt;/span&gt;&lt;/div&gt;&lt;div&gt;&lt;span style=&quot;font-weight: normal;&quot;&gt;&lt;br&gt;&lt;/span&gt;&lt;/div&gt;&lt;div&gt;Realizar 6-7-8 en AR&lt;span style=&quot;font-weight: normal;&quot;&gt; y 1-2-3-4-5 en SQL&amp;nbsp;&amp;nbsp;&lt;/span&gt;&lt;/div&gt;" style="text;whiteSpace=wrap;html=1;fontStyle=1;fillColor=#f5f5f5;strokeColor=#666666;fontColor=#333333;align=left;fontFamily=Comic Sans MS;" vertex="1" parent="1">
          <mxGeometry x="920" y="1120" width="1080" height="160" as="geometry" />
        </mxCell>
        <mxCell id="ugyeiSpLZiavooj3qC4W-119" value="&lt;b&gt;6. Listar DNI, pasaporte, apellido, nombre, teléfono y fecha de nacimiento de artistas que no intervinieron obras en &lt;br/&gt;la ciudad de &#39;La Plata&#39;.&amp;nbsp;&lt;/b&gt;" style="text;whiteSpace=wrap;html=1;fillColor=#f5f5f5;fontColor=#333333;strokeColor=#666666;" vertex="1" parent="1">
          <mxGeometry x="920" y="1280" width="1080" height="40" as="geometry" />
        </mxCell>
        <mxCell id="ugyeiSpLZiavooj3qC4W-120" value="&lt;b&gt;8. Reportar nombre, descripción y cantidad de habitantes de localidades que tengan obras con fecha de creación &lt;br&gt;superior a 1980.&amp;nbsp;&lt;/b&gt;" style="text;whiteSpace=wrap;html=1;fillColor=#f5f5f5;fontColor=#333333;strokeColor=#666666;" vertex="1" parent="1">
          <mxGeometry x="920" y="1650" width="1080" height="40" as="geometry" />
        </mxCell>
        <mxCell id="ugyeiSpLZiavooj3qC4W-121" value="&lt;b&gt;7. Eliminar el artista con idArtista: 2500.&amp;nbsp;&amp;nbsp;&lt;/b&gt;" style="text;whiteSpace=wrap;html=1;fillColor=#f5f5f5;fontColor=#333333;strokeColor=#666666;" vertex="1" parent="1">
          <mxGeometry x="920" y="1490" width="1080" height="40" as="geometry" />
        </mxCell>
        <mxCell id="ugyeiSpLZiavooj3qC4W-122" value="&lt;div&gt;&lt;span style=&quot;color: light-dark(rgb(0, 0, 0), rgb(255, 255, 255)); background-color: transparent; font-size: 18px;&quot;&gt;la_plata&amp;nbsp;&lt;/span&gt;&lt;span style=&quot;background-color: initial; font-size: 20px;&quot;&gt;&amp;lt;&lt;/span&gt;&lt;font style=&quot;background-color: initial; font-size: 16px;&quot;&gt;==&lt;/font&gt;&lt;span style=&quot;color: light-dark(rgb(0, 0, 0), rgb(255, 255, 255)); background-color: transparent; font-size: 18px;&quot;&gt;&amp;nbsp;&lt;/span&gt;&lt;font style=&quot;color: light-dark(rgb(0, 0, 0), rgb(255, 255, 255)); background-color: initial;&quot; face=&quot;Comic Sans MS&quot;&gt;&lt;font style=&quot;font-size: 24px; background-color: initial;&quot;&gt;π&lt;/font&gt;&lt;font style=&quot;font-size: 18px; background-color: initial;&quot;&gt;&amp;nbsp;&lt;/font&gt;&lt;/font&gt;&lt;span style=&quot;background-color: transparent; color: rgb(51, 51, 51);&quot;&gt;codigoPostal&lt;/span&gt;&lt;span style=&quot;background-color: transparent; color: rgb(51, 51, 51);&quot;&gt;&amp;nbsp;&lt;/span&gt;&lt;span style=&quot;color: light-dark(rgb(0, 0, 0), rgb(255, 255, 255)); background-color: transparent; font-size: 18px;&quot;&gt;(&amp;nbsp;&lt;/span&gt;&lt;font style=&quot;color: light-dark(rgb(0, 0, 0), rgb(255, 255, 255)); background-color: initial; font-size: 24px;&quot;&gt;σ&lt;/font&gt;&lt;span style=&quot;color: light-dark(rgb(0, 0, 0), rgb(255, 255, 255)); background-color: initial;&quot;&gt;&amp;nbsp;&lt;/span&gt;&lt;span style=&quot;background-color: initial; color: rgb(51, 51, 51);&quot;&gt;(&amp;nbsp;&lt;span style=&quot;color: light-dark(rgb(0, 0, 0), rgb(255, 255, 255)); background-color: initial;&quot;&gt;nombreL &amp;lt;=&lt;/span&gt;&lt;span style=&quot;background-color: initial; color: rgb(51, 51, 51);&quot;&gt;&amp;nbsp;&quot;La Plata&quot;&amp;nbsp;&lt;/span&gt;)&amp;nbsp;&lt;/span&gt;&lt;span style=&quot;font-size: 18px;&quot;&gt;( Localidad&amp;nbsp;&lt;/span&gt;&lt;span style=&quot;font-size: 18px;&quot;&gt;)&lt;/span&gt;&lt;span style=&quot;color: light-dark(rgb(0, 0, 0), rgb(255, 255, 255)); background-color: transparent; font-size: 18px;&quot;&gt;&amp;nbsp;&lt;/span&gt;&lt;span style=&quot;color: light-dark(rgb(0, 0, 0), rgb(255, 255, 255)); background-color: transparent; font-size: 18px;&quot;&gt;)&lt;/span&gt;&lt;/div&gt;&lt;div&gt;&lt;div&gt;&lt;span style=&quot;color: light-dark(rgb(0, 0, 0), rgb(255, 255, 255)); background-color: transparent; font-size: 18px;&quot;&gt;obra_la_plata&amp;nbsp;&lt;/span&gt;&lt;span style=&quot;background-color: initial; font-size: 20px;&quot;&gt;&amp;lt;&lt;/span&gt;&lt;font style=&quot;background-color: initial; font-size: 16px;&quot;&gt;==&lt;/font&gt;&lt;span style=&quot;color: light-dark(rgb(0, 0, 0), rgb(255, 255, 255)); background-color: transparent; font-size: 18px;&quot;&gt;&amp;nbsp;&lt;/span&gt;&lt;font style=&quot;background-color: initial; color: light-dark(rgb(0, 0, 0), rgb(255, 255, 255));&quot; face=&quot;Comic Sans MS&quot;&gt;&lt;font style=&quot;font-size: 24px; background-color: initial;&quot;&gt;π&lt;/font&gt;&lt;font style=&quot;font-size: 18px; background-color: initial;&quot;&gt;&amp;nbsp;&lt;/font&gt;&lt;/font&gt;&lt;span style=&quot;background-color: transparent; color: rgb(51, 51, 51);&quot;&gt;nroObra&amp;nbsp;&lt;/span&gt;&lt;span style=&quot;background-color: transparent; color: light-dark(rgb(0, 0, 0), rgb(255, 255, 255)); font-size: 18px;&quot;&gt;( Obra |x| la_plata&amp;nbsp;&lt;/span&gt;&lt;span style=&quot;background-color: transparent; color: light-dark(rgb(0, 0, 0), rgb(255, 255, 255)); font-size: 18px;&quot;&gt;)&lt;/span&gt;&lt;/div&gt;&lt;span style=&quot;color: light-dark(rgb(0, 0, 0), rgb(255, 255, 255)); background-color: transparent; font-size: 18px;&quot;&gt;&lt;/span&gt;&lt;/div&gt;&lt;span style=&quot;color: light-dark(rgb(0, 0, 0), rgb(255, 255, 255)); background-color: transparent; font-size: 18px;&quot;&gt;artista_la_plata&amp;nbsp;&lt;/span&gt;&lt;span style=&quot;background-color: initial; font-size: 20px;&quot;&gt;&amp;lt;&lt;/span&gt;&lt;font style=&quot;background-color: initial; font-size: 16px;&quot;&gt;==&lt;/font&gt;&lt;span style=&quot;color: light-dark(rgb(0, 0, 0), rgb(255, 255, 255)); background-color: transparent; font-size: 18px;&quot;&gt;&amp;nbsp;&lt;/span&gt;&lt;font style=&quot;color: light-dark(rgb(0, 0, 0), rgb(255, 255, 255)); background-color: initial;&quot; face=&quot;Comic Sans MS&quot;&gt;&lt;font style=&quot;font-size: 24px; background-color: initial;&quot;&gt;π&lt;/font&gt;&lt;font style=&quot;font-size: 18px; background-color: initial;&quot;&gt;&amp;nbsp;&lt;/font&gt;&lt;/font&gt;&lt;span style=&quot;background-color: transparent; color: rgb(51, 51, 51);&quot;&gt;idArtista, DNI, pasaporte, nombre, apellido, telefono, fnac, codigoPostalVive&amp;nbsp;&lt;/span&gt;&lt;span style=&quot;font-size: 18px;&quot;&gt;( Artista |x| Artista_Obra |x|&amp;nbsp;&lt;/span&gt;&lt;span style=&quot;font-size: 18px;&quot;&gt;obra_la_plata&amp;nbsp;&lt;/span&gt;&lt;span style=&quot;color: light-dark(rgb(0, 0, 0), rgb(255, 255, 255)); background-color: transparent; font-size: 18px;&quot;&gt;)&lt;/span&gt;&lt;div&gt;&lt;font style=&quot;color: light-dark(rgb(0, 0, 0), rgb(255, 255, 255)); background-color: initial;&quot; face=&quot;Comic Sans MS&quot;&gt;&lt;font style=&quot;font-size: 24px; background-color: initial;&quot;&gt;π&lt;/font&gt;&lt;font style=&quot;font-size: 18px; background-color: initial;&quot;&gt;&amp;nbsp;&lt;/font&gt;&lt;/font&gt;&lt;span style=&quot;background-color: transparent; color: rgb(51, 51, 51);&quot;&gt;DNI, apellido, nombre, telefono, fnac&lt;/span&gt;&lt;span style=&quot;background-color: transparent; color: rgb(51, 51, 51);&quot;&gt;&amp;nbsp;&lt;/span&gt;&lt;span style=&quot;color: light-dark(rgb(0, 0, 0), rgb(255, 255, 255)); background-color: transparent; font-size: 18px;&quot;&gt;(&amp;nbsp;&lt;/span&gt;&lt;span style=&quot;font-size: 18px;&quot;&gt;Artista -&amp;nbsp;&lt;/span&gt;&lt;span style=&quot;font-size: 18px; background-color: transparent; color: light-dark(rgb(0, 0, 0), rgb(255, 255, 255));&quot;&gt;artista_la_plata&lt;/span&gt;&lt;span style=&quot;background-color: transparent; color: light-dark(rgb(0, 0, 0), rgb(255, 255, 255)); font-size: 18px;&quot;&gt;&amp;nbsp;&lt;/span&gt;&lt;span style=&quot;background-color: transparent; color: light-dark(rgb(0, 0, 0), rgb(255, 255, 255)); font-size: 18px;&quot;&gt;)&lt;/span&gt;&lt;/div&gt;" style="text;whiteSpace=wrap;html=1;verticalAlign=middle;fontFamily=Comic Sans MS;" vertex="1" parent="1">
          <mxGeometry x="920" y="1320" width="1070" height="130" as="geometry" />
        </mxCell>
        <mxCell id="ugyeiSpLZiavooj3qC4W-123" value="" style="rounded=0;whiteSpace=wrap;html=1;fillColor=#FFCCE6;strokeColor=#000000;" vertex="1" parent="1">
          <mxGeometry x="880" y="1120" width="40" height="640" as="geometry" />
        </mxCell>
        <mxCell id="ugyeiSpLZiavooj3qC4W-124" value="" style="rounded=0;whiteSpace=wrap;html=1;fillColor=#FFCCE6;strokeColor=#000000;" vertex="1" parent="1">
          <mxGeometry x="2000" y="1120" width="40" height="640" as="geometry" />
        </mxCell>
        <mxCell id="ugyeiSpLZiavooj3qC4W-125" value="&lt;div&gt;&lt;span style=&quot;font-size: 18px; background-color: transparent; color: light-dark(rgb(0, 0, 0), rgb(255, 255, 255));&quot;&gt;Artista_Obra&amp;nbsp;&lt;/span&gt;&lt;span style=&quot;background-color: transparent; color: light-dark(rgb(0, 0, 0), rgb(255, 255, 255)); font-size: 18px;&quot;&gt;&amp;lt;==&amp;nbsp;&lt;/span&gt;&lt;span style=&quot;font-size: 18px;&quot;&gt;Artista_Obra&amp;nbsp;&lt;/span&gt;&lt;span style=&quot;background-color: transparent; color: light-dark(rgb(0, 0, 0), rgb(255, 255, 255)); font-size: 18px;&quot;&gt;-&lt;/span&gt;&lt;font style=&quot;background-color: initial; color: light-dark(rgb(0, 0, 0), rgb(255, 255, 255));&quot; face=&quot;Comic Sans MS&quot;&gt;&lt;span style=&quot;background-color: initial; color: rgb(51, 51, 51);&quot;&gt;&lt;span style=&quot;font-size: 18px;&quot;&gt;&amp;nbsp;&lt;/span&gt;&lt;/span&gt;&lt;/font&gt;&lt;span style=&quot;background-color: transparent; color: light-dark(rgb(0, 0, 0), rgb(255, 255, 255)); font-size: 18px;&quot;&gt;(&amp;nbsp;&lt;/span&gt;&lt;span style=&quot;background-color: initial; color: rgb(51, 51, 51);&quot;&gt;&lt;font style=&quot;color: light-dark(rgb(0, 0, 0), rgb(255, 255, 255)); background-color: initial; font-size: 24px;&quot;&gt;σ&lt;/font&gt;&lt;span style=&quot;color: light-dark(rgb(0, 0, 0), rgb(255, 255, 255)); background-color: initial;&quot;&gt;&amp;nbsp;(&amp;nbsp;&lt;/span&gt;&lt;span style=&quot;background-color: initial; color: rgb(51, 51, 51);&quot;&gt;idArtista= &quot;2500&quot; )&lt;/span&gt;&amp;nbsp;&lt;/span&gt;&lt;span style=&quot;background-color: initial; color: light-dark(rgb(0, 0, 0), rgb(255, 255, 255)); font-size: 18px;&quot;&gt;(&amp;nbsp;&lt;/span&gt;&lt;span style=&quot;font-size: 18px;&quot;&gt;Artista_Obra&amp;nbsp;&lt;/span&gt;&lt;span style=&quot;background-color: transparent; color: light-dark(rgb(0, 0, 0), rgb(255, 255, 255)); font-size: 18px;&quot;&gt;)&lt;/span&gt;&lt;span style=&quot;background-color: transparent; color: light-dark(rgb(0, 0, 0), rgb(255, 255, 255)); font-size: 18px;&quot;&gt;&amp;nbsp;&lt;/span&gt;&lt;span style=&quot;background-color: transparent; color: light-dark(rgb(0, 0, 0), rgb(255, 255, 255)); font-size: 18px;&quot;&gt;)&lt;/span&gt;&lt;/div&gt;&lt;div&gt;&lt;span style=&quot;background-color: transparent; color: light-dark(rgb(0, 0, 0), rgb(255, 255, 255)); font-size: 18px;&quot;&gt;Artista &amp;lt;==&amp;nbsp;&lt;/span&gt;&lt;span style=&quot;font-size: 18px;&quot;&gt;Artista&amp;nbsp;&lt;/span&gt;&lt;span style=&quot;background-color: transparent; color: light-dark(rgb(0, 0, 0), rgb(255, 255, 255)); font-size: 18px;&quot;&gt;-&lt;/span&gt;&lt;font style=&quot;background-color: initial; color: light-dark(rgb(0, 0, 0), rgb(255, 255, 255));&quot; face=&quot;Comic Sans MS&quot;&gt;&lt;span style=&quot;background-color: initial; color: rgb(51, 51, 51);&quot;&gt;&lt;span style=&quot;font-size: 18px;&quot;&gt;&amp;nbsp;&lt;/span&gt;&lt;/span&gt;&lt;/font&gt;&lt;span style=&quot;background-color: transparent; color: light-dark(rgb(0, 0, 0), rgb(255, 255, 255)); font-size: 18px;&quot;&gt;(&amp;nbsp;&lt;/span&gt;&lt;font style=&quot;background-color: initial; color: light-dark(rgb(0, 0, 0), rgb(255, 255, 255)); font-size: 24px;&quot;&gt;σ&lt;/font&gt;&lt;span style=&quot;background-color: initial; color: light-dark(rgb(0, 0, 0), rgb(255, 255, 255));&quot;&gt;&amp;nbsp;(&amp;nbsp;&lt;/span&gt;&lt;span style=&quot;background-color: initial; color: rgb(51, 51, 51);&quot;&gt;idArtista= &quot;2500&quot; )&amp;nbsp;&lt;/span&gt;&lt;span style=&quot;background-color: initial; color: light-dark(rgb(0, 0, 0), rgb(255, 255, 255)); font-size: 18px;&quot;&gt;(&amp;nbsp;&lt;/span&gt;&lt;span style=&quot;font-size: 18px;&quot;&gt;Artista&amp;nbsp;&lt;/span&gt;&lt;span style=&quot;background-color: transparent; color: light-dark(rgb(0, 0, 0), rgb(255, 255, 255)); font-size: 18px;&quot;&gt;)&lt;/span&gt;&lt;span style=&quot;background-color: transparent; color: light-dark(rgb(0, 0, 0), rgb(255, 255, 255)); font-size: 18px;&quot;&gt;&amp;nbsp;&lt;/span&gt;&lt;span style=&quot;background-color: transparent; color: light-dark(rgb(0, 0, 0), rgb(255, 255, 255)); font-size: 18px;&quot;&gt;)&lt;/span&gt;&lt;/div&gt;" style="text;whiteSpace=wrap;html=1;verticalAlign=middle;fontFamily=Comic Sans MS;" vertex="1" parent="1">
          <mxGeometry x="920" y="1530" width="1070" height="80" as="geometry" />
        </mxCell>
        <mxCell id="ugyeiSpLZiavooj3qC4W-126" value="&lt;div&gt;&lt;font style=&quot;background-color: initial; color: light-dark(rgb(0, 0, 0), rgb(255, 255, 255));&quot; face=&quot;Comic Sans MS&quot;&gt;&lt;font style=&quot;font-size: 24px; background-color: initial;&quot;&gt;π&lt;/font&gt;&lt;font style=&quot;font-size: 18px; background-color: initial;&quot;&gt;&amp;nbsp;&lt;/font&gt;&lt;/font&gt;&lt;span style=&quot;background-color: transparent; color: rgb(51, 51, 51);&quot;&gt;nombre, descripcion,&amp;nbsp;&lt;/span&gt;&lt;span style=&quot;background-color: transparent; color: rgb(51, 51, 51);&quot;&gt;#habitantes&amp;nbsp;&lt;/span&gt;&lt;span style=&quot;background-color: transparent; color: light-dark(rgb(0, 0, 0), rgb(255, 255, 255)); font-size: 18px;&quot;&gt;( Localidad |x|&amp;nbsp;&lt;/span&gt;&lt;span style=&quot;background-color: transparent; color: light-dark(rgb(0, 0, 0), rgb(255, 255, 255)); font-size: 18px;&quot;&gt;(&amp;nbsp;&lt;/span&gt;&lt;font style=&quot;background-color: initial; color: light-dark(rgb(0, 0, 0), rgb(255, 255, 255)); font-size: 24px;&quot;&gt;σ&lt;/font&gt;&lt;span style=&quot;background-color: initial; color: light-dark(rgb(0, 0, 0), rgb(255, 255, 255));&quot;&gt;&amp;nbsp;(&amp;nbsp;&lt;/span&gt;&lt;span style=&quot;background-color: transparent; color: rgb(51, 51, 51);&quot;&gt;fechaCrea&amp;nbsp;&lt;/span&gt;&lt;span style=&quot;background-color: initial; color: light-dark(rgb(0, 0, 0), rgb(255, 255, 255));&quot;&gt;&amp;gt;&lt;/span&gt;&lt;span style=&quot;background-color: initial; color: rgb(51, 51, 51);&quot;&gt;&amp;nbsp;&quot;1980-12-31&quot; )&amp;nbsp;&lt;/span&gt;&lt;span style=&quot;background-color: transparent; color: light-dark(rgb(0, 0, 0), rgb(255, 255, 255)); font-size: 18px;&quot;&gt;( Obra&amp;nbsp;&lt;/span&gt;&lt;span style=&quot;background-color: transparent; color: light-dark(rgb(0, 0, 0), rgb(255, 255, 255)); font-size: 18px;&quot;&gt;)&amp;nbsp;&lt;/span&gt;&lt;span style=&quot;background-color: transparent; color: light-dark(rgb(0, 0, 0), rgb(255, 255, 255)); font-size: 18px;&quot;&gt;)&lt;/span&gt;&lt;span style=&quot;background-color: transparent; color: light-dark(rgb(0, 0, 0), rgb(255, 255, 255)); font-size: 18px;&quot;&gt;&amp;nbsp;&lt;/span&gt;&lt;span style=&quot;background-color: transparent; color: light-dark(rgb(0, 0, 0), rgb(255, 255, 255)); font-size: 18px;&quot;&gt;)&lt;/span&gt;&lt;/div&gt;" style="text;whiteSpace=wrap;html=1;verticalAlign=middle;fontFamily=Comic Sans MS;" vertex="1" parent="1">
          <mxGeometry x="920" y="1690" width="1070" height="40" as="geometry" />
        </mxCell>
        <mxCell id="ugyeiSpLZiavooj3qC4W-129" value="" style="shape=image;verticalLabelPosition=bottom;labelBackgroundColor=default;verticalAlign=top;aspect=fixed;imageAspect=0;image=data:image/png,iVBORw0KGgoAAAANSUhEUgAAAXQAAACXCAYAAAAFxKDLAAAAAXNSR0IArs4c6QAAAARnQU1BAACxjwv8YQUAAAAJcEhZcwAADsMAAA7DAcdvqGQAABg9SURBVHhe7Z370x/VXcf9G6AhIYFAyLUJIYEEEkgIgVwgF0JCIAhKWynFttTSImIvgFZa22IFegFb6d1O69RR23Hq6FjHcTqOjgyOjrfRjqNjR8f/Yt3XkvN9Pt/zfHa/e/byffbZ5/3Da57Lnj179lze53M+57I/dckll2RCCCGWPxJ0IYQYCRJ0IYQYCRJ0IYQYCRJ0IYQYCRJ0IYQYCRJ0IYQYCRJ0IYQYCRJ0IYQYCRJ0IYQYCRJ0IYQYCRJ0IYQYCRJ0IYQYCYMV9HWbdmY77nok2/vQsxNufd8XC4499/1aEJZ4vPhjCJcSN2nz4vEg7V4cHoT14vAgDV4cHql50Vea+4p34013uXF4jD0vhlIvlnMb4Sd/x/Bs4qS+1c23eTJIQSezLnzz/zqBgvKeEUM47/4yzrz8hhtPDIXv3V8F7+/FFePdW0WfeVEnzU3yoq4oePdWsRzzYjnWCy+emCHlRUgzP73rMYSDuvW0bwYp6PSCXuY1gV7Ve0YM4bz7y6jbCKh43v1V1K2sqQ2sr7wAL54Y5cUCyosFsHS9e6uokxdN4g150Vfn1TeDFPQw3CFT+QmIfIDesA51GwDwTC+OMrw4ykiJm7BeHB4p8SovFlBeLKC8WMDmhb0v6E7QInQptuD5n33uUjEXQSdzyBBeOqUwhBBiqKBlkNIp9k3vgk4PZ3syhN0LJ4QQoh29CTo9l+eHGlJvJoQQ8wLtC25k73oX9CLoJDwWcnxOEnMhxEoFIbd62If7uXNBJ5FWyGEoEwZCCLFUxO7nPkS9U0H3xFw+cyGEeBP00Opj16LemaCTqNhnLheLEEJM44m6F64JnQm69Q+BxFwIIXxiUe9qorQzQbfWOb4iL4wQQog3iUW9CyO4U5cLvYwscyGEmE3spu7C9dLppKgQQoj6xAtJ2i4ikaALIcQSYpcztvWlS9CFEGKJCYeAeddSkKALIcRIkKALIcRIkKALIcRIkKALIcRIkKALIcRIaCTobB5iiU2XZxAIIYRoRyNBR8jDukntDBVCiGHQSNCDmEOXRz8KIYRoTmtB964LIYRoBkYym4yaHHKYLOjxVze8MEIIIZoRjiLHtZ3q0m4l6F2d4SuEEOJN7AmMvQu6PcNXgi6EEN3S5tsSrQS9i8NkhBBCLDBXQQ/+HQm6EEJ0TxuNlaALIcSAWDJBb7KsRgghRDmI+NwEXR+DFkKI/rCCjgHthSkjWdDDh03lbhFCiO6Zq6ALIYToDwm6EEKMBAm6EEKMBAm6EEKMBAm6EEKMhLkLOitd9GELIYTonrkKuj1tUaIuhBDdMldB18YiIYToDwm6EEKMBOsFQdy9MGVI0IUQYkCET9ClijlI0IUQYiRI0IUQYiRI0JcBl156abZm/absLasvd68LIQRI0AfOZeuuyo5+9A+K/D77yj9lV+066IYTYl6sWrMuu+nhj2Xnf/vH2W0f+Gq26vIr3HBi/kjQB85bjzw0yW+44f6n3XBNwOLftP9Udt3d78n2vePXsyvfeqMbbrnBiGbd5l3ZtjsezG562/NFPUWEvLAinR13viO78I3/naqXZ7/wj9nB976SbTl0b7Z24w6NJpcICXoHICBbbz2fC+Je93obEFrbcLYdfsANVxfSuuGGO7KjH/n97P6v/vdU3DRSxN27L+bSt6zKrsnjWX3lNZP/MZq4fMO2wj3Ec2z4ebBq7fpsz09/JLvnc38//V45Jz71l1NpTSW4vdZcvTW7dNVqN0xXkLeU0f5HPp0d/sVvZmdefD2757N/lx164itFHnv3zBPWRsf5G3P/1/8nO/GJP8+uPfFo52mmLNZes72I+8Djr2THf/UHRblfsfX6Iu+8e1YKEvRE1m68Njvw7s9NGhk/jz37/UIc24pGzKrLrywqq20oTQUdIbrhwtPZ3S/+7VR8MTQMex+d1OEnv1E0HiwvBPuKbXsKoSH8fV/+zyIf+DmJJ+8Y9r/zN3oXPuAZG2+8s0jPog7KcOblN4q0e3F4IAzrd+wrOtRTL/yoECgb39lX/6VYVtblO7Jc7eZHP1O4MuyzLDe/68XKzpJ33HLruUZuEOLFpUcdq6rHjBK9tJVB3uE23Hjj8caCe9XOW7I7n//T7Exe16rKmbyjDq9UN1CyoNtdTCtp6z8V5MDPv7yoYVvO56LWZZ6sv/bm7Nxv/esk/nu/9ONsw/W3u2E9EBsa54lP/HDREDmAwGP5IXj46K++YSF+fud/3n2zoNHhzrHp6ZJZ4sfzj3zou9mRD/9edv/XfpIdeO8XZopvEHFE0+Z7FbMEdhaFiOZidfTZ75WWkQWDqsx9tGHv0aKOEK5Jurj//Gv/UdxPJ7bmqs1uuG23P5BdyNsBeXzq0z/KDv3ClwoR3X3uieJ3rwMMUM+2H3u4trDzDtuPPjxtMNSA8ttx7G2tymY5kizoYdH7SrLO12zYmh3/2B+7FSfm0Ptf68RqoyLue/vHp+KuK+g0+J2n310uSrlwYO0wrK+q8Aime38N6ChSOp+64OdHqMvED4G/8WeeK9wv3v3AO9PY737p9cL3W4y0Zlh+ZTCCYiTlPacK0hCszjpCDqSPORUvPkBUQ9gmo0Ur6LDrnvctCsPzSce9X/y3ygl6DCCE2DUm8r8xIqrKKBCeN3X/RajfjMyKTiTvWBaFy5/D5G2Xo6ihkyzoKw38f9bNBCc++RfZzpOPFRb0/p/75JQ1QqXacuCsG1cKxB1bx+de/efCgvTCA50tbpXTn/nrqfsCpI2GVHfyk/coa0wBnoWQbD/yswWMCHDvePE1hQa5+eDZYkVFWXroQHaefLTW5KfnyorhOcef+6PC6mSuAFdGAF/t7U9/uwjXRNBx293x9HcWCR0CxcTi5gNnCiv2ruf/rOhsyGN8xVUdMP/HmAhx4Ras6qw9Vl+xofB7hzhi9xvliosxXEcs7fUywmgqtrKx5MlL7x4g3z2jhLJhrie28il70hy7//hfal4sNcxToDvknXe9DAl6BQjJwcdfnaoccY9PRSksI9M4mXBsM8tP/N7EU5kfmDQg5GXD3HN5x0Aa61hEMWGiM7wPfnSs2RB3lcXYBWvzCk3Dt+8TCL7ZWSONmFJBz8sQixLLcpYPlnzZ8+AzSc8m3NbDFxaJFM9MfYcYJgnPvPRGER9WNta2F66KOF+YP7DXqQfUwXA9tTOj/t0SuS3prKhTcVjK/fRv/s0k3IQaAs3Ix3Y8dAB919MuwfsR0p66/V+CXgETgROhpiLlDdjz/cWWDcP4dVt2LwpXl4377poa+gbKBN0VqDy9+GXbTER52Ead6tNvAhb/1HvlIIg06qYT0HROdLo2TkS1avTTFjppJoon9SkHSxLXWBflU/i1L8Z99Jk/bLRMM65HjObs9dXrN2WnX/iryfVUQQeEmHYU4oDYtUNeMedhw5BXLEFlOWqdji/uEKgzG3bf5oYdGnaesvfTFlcKDC+t6wJL3VrmMUyYhrD4cRkueuFmgUgVfkfiQpTzxslkK3+nCHpfVokV9LL0dIkn6AxF2y6Fs2upsWyxcL1wXYC1j7vIvgOulKZ1JAaBs+6W3fd+0A03C1u2EAs69f/wL31rcr2JoMOmfSez+77yX5N46Jzt9digwVhCyG2YOsQum8NPfr2yDQ8FCXoP0ChCplbN+AeshQQIkReuith6ocGwUiSsXKgS0J0n3rXIv8zfxNflEi5GHoxAQvqaNOgUyPe4swLmMRha17HWPBhZhHzt8z2wlGP3WVOBKsO6W9qMmmJBj10ugMiH62HFTXCLYUUXrr2K0QHvbUezrEBimWW4XnQaufCG6whym44PF+kkrhlzUENBgt4xWH9MSBWZmos0rhcvnGXtll0T33JTCx0/ahAZxJhOwgpPlaAjbHRCsagD6WFSKnWCxcOm57YP5hZPQ0FNAR+rFYEJedkwmqHzTLW8UgWd62FX7cH3fL4YsQFuAJaqem4T0jQ1B5Nz7NnvZWs63KsA1LWwfLPNqMl21uCtcrGCHiz4uMMiDYhSmCjffvztxSYpyjCe54lHvrZc6ra9KiibMMIl3qad3TyRoHcMqwywHMhQ3C51Vm0gbAgyBbD3oWeSBSb2+bFksYjTVHAaBP567/4AFkjZmuYwidjGr25dILynF6YPsPquP//kognFQJj4retXnyXo5A95uf+RT7k7T6fI89pb5x4vuatyFV135vGJ2PEuHFtgy4jfGa14k+22TNqMNuxkHO/ENv44jCfo9n914V1ZXhrnGWUYwuCvx29vr6cy1dm9+HrnK7D6QILeMQhVyFB8416YLqGR26WRWJ1BmFItyQBLE1kaF1tEATqqzTefTraw7S7BpdiLgLAXa+xLNjwhoJTZrBU9tqGzPJS8muz+zfFGOlXEljHia1fn0FnTads0BBA165uuIt78BVbQm46a4jSUuSc8QffOdqmibAI6TkMXbY9ONcQXXEReuCExd0HvYug+ZGyl7Vu0aHzWbx77DJsKegCRKd1RmTfCw0/9TpILIEz+MoJhJOOFmQdYrNtuu1CIgycm5CNLBMvEzYpgHYgPscTlQvmQrxyBwH4EJq7xN1tr087B0DlU7U2gTClb+7wqcAdaS99atU1F0PrhoayueYJOHpe5+/Cr00ne8cu/W7inqM9lo8M4HzyXTwqka2pt/hyMsy6Yq6Djk+JBWCTe9TFgKy0N3wvTFfjJQ0PgZ7wypa2gB5gY3XnqMfcsF6z1OpNFNBBEjXuGMsFEmkgHZRYLStmwHqwIlkFeEa7uUrlALEyImZcGC/sI6lq51AfqRbjXvgu/23jrwsRkcDOCNyFqyx+CoAfoYENdDVSNTGKwnu1Ita1Lj01L93z+H4q44snXITNXQecB4WFjPcvFCnqffuLYb+6dv2EF/c5f+5Pssgabg2IQQFaJhOdCnYZnhaoL/2bXIAh7H/zotLDnIonIxfmKYE3CGLAo204gk790eCHOOpYmVisChO+ciUQ7+crWdjtZGXemVtBTBQAKV4dZWVK2MSnuqGJBB9Jll/tCyhJN2/Zwv8zqCMugvGlPIa46K9WGwlwF3fagYz3PhQYY3rGvihD7zfndDqNp4MHyDGEAqxPL0ZuwSgGLne3h1iqctZXbbixp09j6hnXOiEh4L3zirEKyYWy+YnWytR5hbLKbNsZ2wtB2PwD5jJUf4osnx637qMkuZbu6qoijZGNSHUEvwuX3FucAmbpF/IxGZ4107BxNG6NhakI6T0fb1TLzRILeMXYJIsRLq9pCpS6sqqkK/++FCAFWYvi/B9dZd+7FnQLvZH2MlG3VpBF+Y1xthC1rzENhSqTyfLYdoB3aE8a6L7ogttCbnKsS8MSxOADOxMchWRyWxTV8/ZwDZOOoIh4lIoIIrxc2FnR+539eWNLH2Tq2LhM3vvaqvLDLDHGTcIiaF66M4rmnHpsapR358Hcr6/XQYHRIO4NUL4gEvYQpn2b+k0bU1QadeDlbbfJ0MAy3S/Ou3nWosNgY5jY5LpTKH+KfdUKftTyb+mrrQmeDW4QODncAJ1564crgYxQnjVuJlTHhmh1ptD2mwSMWvniiuw6UI6uQFs155HWAVSU27CLLGcGvYYB4p4hWGS/xkQl1ltHy3na0RPrp4Mraki0bKPJu7zE3bAyjq2LkFdptTooPf0g0dflJ0EugUsebQmhcTZb6WbyJoxg+nkA+sypgzwMfmmyD9qzJsOoE6CTwIde1RugMbGNjWF81XLdLwPoW9NjKxedv/cZVUHb23BTyxZ7Nbkca/ORvypROgN+BzUyc8Bg2xVAXYsh72gDpildu7D77/ilhIZ9xBdkwHqSdD3ZMjn+I8NxHYFfV8FzKp6qeXrltTyHINm7qXNk6+YB1VRVpcQ7WiqHjsLoBVd8itbs7ASu/cIeV1GvyjHJA/O19LEOtW2fGggS9Aipc4ZIwDRMmqx/yXhTrCAHAEplMZOWwnI3/h7hoXPFB/cHNcjK3jPGbMVSOraPYKor9saQjXAsgYBz9yrXJbr2LkEYm2Yolaua9ZlmRRV584MuT8IwIELXwibSwdpt3YvIWUfLiqUu8jC7AJh/83dS9+N3oAKmfscuKdNp8tS6KTsjzkRGdTT/1otjgFYU7/is/mFr6SEfDu/BO1KuyfQOBsg9XxOveeRYjm6uvOzh5d37ib/eWelJf6ixftXs0UtxVhevonS9MvV9cLoF4filA/jA6oRPB6sYvzs5bb7TL/amjujEgQZ8BjQdXRtz71yFMUBFHvE6XoW6dCse9dqlYvJaWij3VkBuAAMYdBQ2NDSy4PYh/ltDEFNb+Zf7QvQ68d9WRwHVhZ2xsdcaTlm0hjdff99TUMwCBRHC8e+pAnSs+gGH+rvKP00k0qae3P/WtmZZ5wE5apgg6UKZ25QmdSpm/vvS4hxnQxlJGqWNDgl4T/HNsA3c36DgEkfSEqa41BLFP0VvFkJo2S9muPTs5lQIN6sTHf5htuaX9piPyDjdF2eahKqqG6SkWOuWGW4aRCCMvrGuWFrKpiG3knoVp4fmkIx41VMEoBJ9/uDf8v84KljouvUBVHpVhV9SUuX+q4Fl26TPP98JBUt7l9YPOb6W5WGIk6InQgK/ZcyS75bGXFg2RmWA79MRrxQaG0PDiLw+lWEOABW793FVLuYJVjeshfO3Gg2uE4QPQiKYXV7Gd++IzPXhvNm1QH/Axs4qEYX9ZfG1BPBliM1oJW/Rj+D/XZ32gYuIOyUUg7gSxcMNXg/Cpd/U+TDZjxcflQprpLMhDDID4rBErfozy7LUy+CISbjXPFYE4siyxzkc8PLCccbdR/hgqTfIHoS7cL1/7SamFbiGdpJd0U+d4Nu9Gh8JIkE52OZzRMg8k6D0TLBoaUpOPGdBgCivtooXaZm1uCnQ6fO2fCVl8/KxMYLiNIDFsrnsI1lCh82OUhLiwLZ+Od5b1uxQEC72JNcz7hEleKDrcxPonlhfJgm4thrHuFO0SxBdLps3514gPvmwso7YbisTygrLHfVX17U0hAsmCzsoOVmSAd10IIcTSkCzoQggh+gWDGW9I6gYjCboQQgwI5iaDWzvVEyJBF0KIAYGIB0Hv/XAuIYQQ/SFBF0KIkSBBF0KIkSBBF0KIkSBBF0KIkSBBF0KIkTBXQWe7P6fPpT5ICCHEbOYq6DwgPExnuQghRLfMVdB12qIQQvSHBF0IIUYC57cEjdVX/4UQYpmDqKcezAUSdCGEGAkSdCGEGAkSdCGEGAkSdCGEGAkSdCGEGAkSdCGEGBjsxgctWxRCiGUMuho0lk1GXpgykgXdbv1PfZgQQohqluwsFwm6EEJ0SxuNTRZ023tI0IUQoluWTNBThwNCCCGqsYKeOk/ZStCZIPXCCCGEaEabhSfJgm5nYCXoQgjRLSxXnJug26Md5XIRQohuCfoKqScuJgs6sNg9tecQQghRjTWYwQtTRSNBF0II0T3WpY3rxQtThQRdCCEGAt6PIOhNXNoSdCGEGAi4XFhs0uQcF5CgCyHESJCgCyHESJCgCyHESJCgCyHESJCgCyHESGgt6MzKcr6LTl4UQoilpbWgtznqUQghRHe0FnR7+iJrJ1PPHhBCCNENnbhc7OlgTbarCiHESgSDGC9HV4ZwJ5OidrsqyPUihBDV2HPPuzqKvBNBh9j1IlEXQggfO/cIXR1F3pmgx64XkKgLIcQ01viFLj8U1Jmgg0RdCCHK6VPMoVNBB0/U9TEMIcRKxtPFrsUcOhd0IPHW4d+Vf0gIIZYbsVUOiLsXti29CDog6rxIl0tyhBBiOeGJeZ9u6N4EXQghVjpW0LHKm3y0IoXBCDpWPL52XrjvlxZCiHkQPBV9WuWWwQh6PGHA34AvHreNxU6y2gybRegw7HOrSIm7r3hTJpRT4yW8F4+H8mIB3s+Lx0P1YoHllheBoDtoEaBL/O3Fv9QMRtCtmNchzBDbydc6UBjxsz2oJN79VdStsN69VYR3nQWVzLu/jLrx9pUXNC7v3irqNqTUvFiO9aJuXizHNkIavPvL6KteVIHYe89YSgblciGz61a+UICplRXiZ3tQ8bx7q1hqEUvNi7qCvhLyYqlFbEh5AV48MU3ygnu8uCxDywsP6kudcp03g50UpVDJMCoA2OEPP7kewtlhURX2vlkQjud68XjUqagB3suLwyM1zUPIC+L24vHoK17lxQLLMS+I24vDo6+8AMIGeFfa7hCFPDBYQRdCCJGGBF0IIUaCBF0IIUaCBF0IIUaCBF0IIUaCBF0IIUaCBF0IIUaCBF0IIUbBJdn/A+G3uSP/DDxEAAAAAElFTkSuQmCC;" vertex="1" parent="1">
          <mxGeometry x="1780.09" y="1130" width="209.91" height="85.2" as="geometry" />
        </mxCell>
      </root>
    </mxGraphModel>
  </diagram>
</mxfile>
